<?xml version="1.0" encoding="UTF-8" standalone="no"?>
<svg
   xmlns:dc="http://purl.org/dc/elements/1.1/"
   xmlns:cc="http://creativecommons.org/ns#"
   xmlns:rdf="http://www.w3.org/1999/02/22-rdf-syntax-ns#"
   xmlns:svg="http://www.w3.org/2000/svg"
   xmlns="http://www.w3.org/2000/svg"
   viewBox="0 0 690.88135 163.38533"
   height="163.38533"
   width="690.88135"
   xml:space="preserve"
   id="svg2"
   version="1.1"><metadata
     id="metadata8"><rdf:RDF><cc:Work
         rdf:about=""><dc:format>image/svg+xml</dc:format><dc:type
           rdf:resource="http://purl.org/dc/dcmitype/StillImage" /></cc:Work></rdf:RDF></metadata><defs
     id="defs6" /><g
     transform="matrix(1.3333333,0,0,-1.3333333,0,163.38533)"
     id="g10"><g
       transform="translate(73.411,19.847)"
       id="g12"><g
         id="g14"><g
           id="g16"><g
             id="g18"><g
               id="g20"><path
                 id="path22"
                 style="fill:none;stroke:#808080;stroke-width:0.19925;stroke-linecap:butt;stroke-linejoin:miter;stroke-miterlimit:10;stroke-dasharray:none;stroke-opacity:1"
                 d="m -65.19774,0 h 229.6093 m -229.6093,28.3468 h 229.6093 m -229.6093,28.34682 h 229.6093 m -229.6093,28.3468 h 229.6093 M -56.69362,0 V 90.7097 M -28.3468,0 V 90.7097 M 0,0 V 90.7097 M 28.3468,0 V 90.7097 M 56.69362,0 V 90.7097 M 85.04042,0 V 90.7097 M 113.38724,0 V 90.7097 M 141.73404,0 v 90.7097" /></g><g
               id="g24"><path
                 id="path26"
                 style="fill:none;stroke:#000000;stroke-width:0.79701;stroke-linecap:butt;stroke-linejoin:miter;stroke-miterlimit:10;stroke-dasharray:none;stroke-opacity:1"
                 d="M -68.03217,0 H 167.49059" /><g
                 transform="translate(167.49059)"
                 id="g28"><g
                   id="g30"><path
                     id="path32"
                     style="fill:#000000;fill-opacity:1;fill-rule:nonzero;stroke:none"
                     d="M 2.59026,0 -1.55415,2.0722 0,0 -1.55415,-2.0722" /></g></g><g
                 id="g34"><g
                   transform="translate(65.097,-12.602)"
                   id="g36"><g
                     id="g38"><g
                       transform="translate(-138.508,-7.245)"
                       id="g40"><text
                         id="text44"
                         style="font-variant:normal;font-weight:normal;font-size:11.9552002px;font-family:CMR12;-inkscape-font-specification:CMR12;writing-mode:lr-tb;fill:#000000;fill-opacity:1;fill-rule:nonzero;stroke:none"
                         transform="matrix(1,0,0,-1,138.508,7.245)"><tspan
                           id="tspan42"
                           y="0"
                           x="0 6.5036287 11.706532 17.559797 22.112337 31.212637 36.745502 42.59877 45.850582 52.354214 61.45451 65.031509 70.884773">Scorevaluefor</tspan></text>
<text
                         id="text48"
                         style="font-variant:normal;font-weight:normal;font-size:11.9552002px;font-family:CMMI12;-inkscape-font-specification:CMMI12;writing-mode:lr-tb;fill:#000000;fill-opacity:1;fill-rule:nonzero;stroke:none"
                         transform="matrix(1,0,0,-1,217.849,7.245)"><tspan
                           id="tspan46"
                           y="0"
                           x="0">S</tspan></text>
<text
                         id="text52"
                         style="font-variant:normal;font-weight:normal;font-size:7.97009993px;font-family:CMR8;-inkscape-font-specification:CMR8;writing-mode:lr-tb;fill:#000000;fill-opacity:1;fill-rule:nonzero;stroke:none"
                         transform="matrix(1,0,0,-1,225.048,5.451)"><tspan
                           id="tspan50"
                           y="0"
                           x="0 4.7047501 8.9392643">bad</tspan></text>
<g
                         transform="translate(138.508,7.245)"
                         id="g54" /></g></g><g
                     transform="translate(-65.097,12.602)"
                     id="g56" /></g></g></g><g
               id="g58"><path
                 id="path60"
                 style="fill:none;stroke:#000000;stroke-width:0.79701;stroke-linecap:butt;stroke-linejoin:miter;stroke-miterlimit:10;stroke-dasharray:none;stroke-opacity:1"
                 d="M 0,0 V 90.95428" /><g
                 transform="rotate(90,-45.47714,45.47714)"
                 id="g62"><g
                   id="g64"><path
                     id="path66"
                     style="fill:#000000;fill-opacity:1;fill-rule:nonzero;stroke:none"
                     d="M 2.59026,0 -1.55415,2.0722 0,0 -1.55415,-2.0722" /></g></g><g
                 id="g68"><g
                   transform="translate(-43.22,90.621)"
                   id="g70"><g
                     id="g72"><g
                       transform="translate(-30.191,-110.468)"
                       id="g74"><text
                         id="text78"
                         style="font-variant:normal;font-weight:normal;font-size:11.9552002px;font-family:CMR12;-inkscape-font-specification:CMR12;writing-mode:lr-tb;fill:#000000;fill-opacity:1;fill-rule:nonzero;stroke:none"
                         transform="matrix(1,0,0,-1,30.191,110.468)"><tspan
                           id="tspan76"
                           y="0"
                           x="0 8.9400988 14.143002 20.646631 25.263729 28.515543 32.745293">Density</tspan></text>
<g
                         transform="translate(30.191,110.468)"
                         id="g80" /></g></g><g
                     transform="translate(43.22,-90.621)"
                     id="g82" /></g></g></g><g
               id="g84"><path
                 id="path86"
                 style="fill:#fe8010;fill-opacity:0.35;fill-rule:nonzero;stroke:none"
                 d="m -65.19774,0 v 12.105 l 2.31928,1.09993 2.31926,1.18472 2.31927,1.24745 2.31928,1.32271 2.31925,1.38455 2.31928,1.44727 2.31926,1.51605 2.31927,1.57184 2.31928,1.62806 2.31926,1.67782 2.31927,1.72799 2.31926,1.77211 2.31928,1.80196 2.31927,1.83397 2.31927,1.85255 2.31927,1.8651 2.31926,1.86509 2.31927,1.86512 2.31928,1.84694 2.31926,1.82704 2.31927,1.78421 2.31928,1.74615 2.31926,1.68431 2.31927,1.62851 2.31926,1.54718 2.31928,1.4529 2.31927,1.36638 2.31926,1.25999 2.31925,1.14752 2.31926,1.02295 2.31927,0.89277 2.31927,0.76039 2.31926,0.62417 2.31928,0.47405 2.31926,0.33088 2.31927,0.17434 2.31928,0.02464 2.31926,-0.12457 2.31927,-0.28072 2.31928,-0.42432 2.31926,-0.57399 2.31927,-0.71066 2.31926,-0.85467 2.31926,-0.98577 2.31928,-1.10382 2.31926,-1.22279 2.31927,-1.32834 2.31926,-1.42866 2.31928,-1.51563 2.31927,-1.59691 2.31926,-1.67177 2.31927,-1.72149 2.31926,-1.77774 2.31928,-1.81536 2.31927,-1.84045 2.31926,-1.85861 2.31928,-1.86512 2.31927,-1.87158 2.31926,-1.85257 2.31928,-1.84044 2.31926,-1.81493 2.31928,-1.78422 2.31927,-1.7401 2.31926,-1.69685 2.31927,-1.64623 2.31926,-1.59089 2.31928,-1.5342 2.31927,-1.47194 2.31926,-1.40357 2.31928,-1.34174 2.31925,-1.27254 2.31928,-1.21022 2.31928,-1.13542 2.31926,-1.07225 2.31927,-1.00479 2.31928,-0.94121 2.31926,-0.87373 2.31927,-0.81057 2.31926,-0.75564 2.31927,-0.69164 2.31928,-0.64231 2.31926,-0.58739 2.31927,-0.53549 2.31926,-0.49309 2.31928,-0.44335 2.31927,-0.40528 2.31926,-0.36854 2.31928,-0.33001 2.31926,-0.29975 2.31927,-0.26731 2.31928,-0.2379 2.31926,-0.21151 2.31927,-0.18728 2.31927,-0.16826 2.31927,-0.14966 2.31927,-0.13106 2.31926,-0.11896 2.31928,-0.09904 2.31927,-0.08652 L 164.41156,0" /></g><g
               id="g88"><path
                 id="path90"
                 style="fill:none;stroke:#fe8010;stroke-width:0.79701;stroke-linecap:butt;stroke-linejoin:miter;stroke-miterlimit:10;stroke-dasharray:none;stroke-opacity:1"
                 d="m -65.19774,12.105 2.31928,1.09993 2.31926,1.18472 2.31927,1.24745 2.31928,1.32271 2.31925,1.38455 2.31928,1.44727 2.31926,1.51605 2.31927,1.57184 2.31928,1.62806 2.31926,1.67782 2.31927,1.72799 2.31926,1.77211 2.31928,1.80196 2.31927,1.83397 2.31927,1.85255 2.31927,1.8651 2.31926,1.86509 2.31927,1.86512 2.31928,1.84694 2.31926,1.82704 2.31927,1.78421 2.31928,1.74615 2.31926,1.68431 2.31927,1.62851 2.31926,1.54718 2.31928,1.4529 2.31927,1.36638 2.31926,1.25999 2.31925,1.14752 2.31926,1.02295 2.31927,0.89277 2.31927,0.76039 2.31926,0.62417 2.31928,0.47405 2.31926,0.33088 2.31927,0.17434 2.31928,0.02464 2.31926,-0.12457 2.31927,-0.28072 2.31928,-0.42432 2.31926,-0.57399 2.31927,-0.71066 2.31926,-0.85467 2.31926,-0.98577 2.31928,-1.10382 2.31926,-1.22279 2.31927,-1.32834 2.31926,-1.42866 2.31928,-1.51563 2.31927,-1.59691 2.31926,-1.67177 2.31927,-1.72149 2.31926,-1.77774 2.31928,-1.81536 2.31927,-1.84045 2.31926,-1.85861 2.31928,-1.86512 2.31927,-1.87158 2.31926,-1.85257 2.31928,-1.84044 2.31926,-1.81493 2.31928,-1.78422 2.31927,-1.7401 2.31926,-1.69685 2.31927,-1.64623 2.31926,-1.59089 2.31928,-1.5342 2.31927,-1.47194 2.31926,-1.40357 2.31928,-1.34174 2.31925,-1.27254 2.31928,-1.21022 2.31928,-1.13542 2.31926,-1.07225 2.31927,-1.00479 2.31928,-0.94121 2.31926,-0.87373 2.31927,-0.81057 2.31926,-0.75564 2.31927,-0.69164 2.31928,-0.64231 2.31926,-0.58739 2.31927,-0.53549 2.31926,-0.49309 2.31928,-0.44335 2.31927,-0.40528 2.31926,-0.36854 2.31928,-0.33001 2.31926,-0.29975 2.31927,-0.26731 2.31928,-0.2379 2.31926,-0.21151 2.31927,-0.18728 2.31927,-0.16826 2.31927,-0.14966 2.31927,-0.13106 2.31926,-0.11896 2.31928,-0.09904 2.31927,-0.08652" /></g><g
               id="g92"><g
                 id="g94"><g
                   transform="translate(-64.437,37.276)"
                   id="g96"><g
                     id="g98"><g
                       transform="translate(-8.974,-57.123)"
                       id="g100"><text
                         id="text104"
                         style="font-variant:normal;font-weight:normal;font-size:14.34619999px;font-family:CMMI12;-inkscape-font-specification:CMMI12;writing-mode:lr-tb;fill:#fe8010;fill-opacity:1;fill-rule:nonzero;stroke:none"
                         transform="matrix(1,0,0,-1,8.974,57.123)"><tspan
                           id="tspan102"
                           y="0"
                           x="0">X</tspan></text>
<text
                         id="text108"
                         style="font-variant:normal;font-weight:normal;font-size:9.96259975px;font-family:CMR10;-inkscape-font-specification:CMR10;writing-mode:lr-tb;fill:#fe8010;fill-opacity:1;fill-rule:nonzero;stroke:none"
                         transform="matrix(1,0,0,-1,20.632,54.972)"><tspan
                           id="tspan106"
                           y="0"
                           x="0 7.7489104 12.73021">OoD</tspan></text>
<g
                         transform="translate(8.974,57.123)"
                         id="g110" /></g></g><g
                     transform="translate(64.437,-37.276)"
                     id="g112" /></g></g></g><g
               id="g114"><path
                 id="path116"
                 style="fill:#2fa12e;fill-opacity:0.35;fill-rule:nonzero;stroke:none"
                 d="m -65.19774,0 v 2.84912 l 2.31928,0.45329 2.31926,0.51775 2.31927,0.5809 2.31928,0.64536 2.31925,0.73012 2.31928,0.80754 2.31926,0.89318 2.31927,0.99268 2.31928,1.08481 2.31926,1.18385 2.31927,1.29025 2.31926,1.39582 2.31928,1.50955 2.31927,1.61684 2.31927,1.72884 2.31927,1.83613 2.31926,1.94209 2.31927,2.05586 2.31928,2.14106 2.31926,2.23926 2.31927,2.3184 2.31928,2.39625 2.31926,2.4525 2.31927,2.49488 2.31926,2.53035 2.31928,2.54547 2.31927,2.54419 2.31926,2.52386 2.31925,2.4871 2.31926,2.42437 2.31927,2.34653 2.31927,2.24054 2.31926,2.12591 2.31928,1.98537 2.31926,1.82876 2.31927,1.65101 2.31928,1.45332 2.31926,1.25436 2.31927,1.02858 2.31928,0.80019 2.31926,0.56015 2.31927,0.31876 2.31926,0.07138 2.31926,-0.1847 2.31928,-0.42518 2.31926,-0.66611 2.31927,-0.90703 2.31926,-1.12675 2.31928,-1.34737 2.31927,-1.54546 2.31926,-1.72885 2.31927,-1.90014 2.31926,-2.04894 2.31928,-2.17566 2.31927,-2.29678 2.31926,-2.38112 2.31928,-2.4538 2.31927,-2.50222 2.31926,-2.53684 2.31928,-2.54548 2.31926,-2.5442 2.31928,-2.5165 2.31927,-2.4806 2.31926,-2.42439 2.31927,-2.36035 2.31926,-2.28943 2.31928,-2.19815 2.31927,-2.10429 2.31926,-1.99962 2.31928,-1.89972 2.31925,-1.79286 2.31928,-1.67305 2.31928,-1.57445 2.31926,-1.45203 2.31927,-1.35383 2.31928,-1.2414 2.31926,-1.14103 2.31927,-1.04242 2.31926,-0.94293 2.31927,-0.8573 2.31928,-0.77208 2.31926,-0.69551 2.31927,-0.61637 2.31926,-0.55235 2.31928,-0.49007 2.31927,-0.43123 2.31926,-0.37631 2.31928,-0.33307 2.31926,-0.29109 2.31927,-0.24742 2.31928,-0.21973 2.31926,-0.19117 2.31927,-0.15572 2.31927,-0.14273 2.31927,-0.11247 2.31927,-0.09948 2.31926,-0.08435 2.31928,-0.07049 2.31927,-0.05927 L 164.41156,0" /></g><g
               id="g118"><path
                 id="path120"
                 style="fill:none;stroke:#2fa12e;stroke-width:0.79701;stroke-linecap:butt;stroke-linejoin:miter;stroke-miterlimit:10;stroke-dasharray:none;stroke-opacity:0.8"
                 d="m -65.19774,2.84912 2.31928,0.45329 2.31926,0.51775 2.31927,0.5809 2.31928,0.64536 2.31925,0.73012 2.31928,0.80754 2.31926,0.89318 2.31927,0.99268 2.31928,1.08481 2.31926,1.18385 2.31927,1.29025 2.31926,1.39582 2.31928,1.50955 2.31927,1.61684 2.31927,1.72884 2.31927,1.83613 2.31926,1.94209 2.31927,2.05586 2.31928,2.14106 2.31926,2.23926 2.31927,2.3184 2.31928,2.39625 2.31926,2.4525 2.31927,2.49488 2.31926,2.53035 2.31928,2.54547 2.31927,2.54419 2.31926,2.52386 2.31925,2.4871 2.31926,2.42437 2.31927,2.34653 2.31927,2.24054 2.31926,2.12591 2.31928,1.98537 2.31926,1.82876 2.31927,1.65101 2.31928,1.45332 2.31926,1.25436 2.31927,1.02858 2.31928,0.80019 2.31926,0.56015 2.31927,0.31876 2.31926,0.07138 2.31926,-0.1847 2.31928,-0.42518 2.31926,-0.66611 2.31927,-0.90703 2.31926,-1.12675 2.31928,-1.34737 2.31927,-1.54546 2.31926,-1.72885 2.31927,-1.90014 2.31926,-2.04894 2.31928,-2.17566 2.31927,-2.29678 2.31926,-2.38112 2.31928,-2.4538 2.31927,-2.50222 2.31926,-2.53684 2.31928,-2.54548 2.31926,-2.5442 2.31928,-2.5165 2.31927,-2.4806 2.31926,-2.42439 2.31927,-2.36035 2.31926,-2.28943 2.31928,-2.19815 2.31927,-2.10429 2.31926,-1.99962 2.31928,-1.89972 2.31925,-1.79286 2.31928,-1.67305 2.31928,-1.57445 2.31926,-1.45203 2.31927,-1.35383 2.31928,-1.2414 2.31926,-1.14103 2.31927,-1.04242 2.31926,-0.94293 2.31927,-0.8573 2.31928,-0.77208 2.31926,-0.69551 2.31927,-0.61637 2.31926,-0.55235 2.31928,-0.49007 2.31927,-0.43123 2.31926,-0.37631 2.31928,-0.33307 2.31926,-0.29109 2.31927,-0.24742 2.31928,-0.21973 2.31926,-0.19117 2.31927,-0.15572 2.31927,-0.14273 2.31927,-0.11247 2.31927,-0.09948 2.31926,-0.08435 2.31928,-0.07049 2.31927,-0.05927" /></g><g
               id="g122"><g
                 id="g124"><g
                   transform="translate(57.834,61.371)"
                   id="g126"><g
                     id="g128"><g
                       transform="translate(-131.245,-81.218)"
                       id="g130"><text
                         id="text134"
                         style="font-variant:normal;font-weight:normal;font-size:14.34619999px;font-family:CMMI12;-inkscape-font-specification:CMMI12;writing-mode:lr-tb;fill:#2fa12e;fill-opacity:1;fill-rule:nonzero;stroke:none"
                         transform="matrix(1,0,0,-1,131.245,81.218)"><tspan
                           id="tspan132"
                           y="0"
                           x="0">X</tspan></text>
<text
                         id="text138"
                         style="font-variant:normal;font-weight:normal;font-size:9.96259975px;font-family:CMR10;-inkscape-font-specification:CMR10;writing-mode:lr-tb;fill:#2fa12e;fill-opacity:1;fill-rule:nonzero;stroke:none"
                         transform="matrix(1,0,0,-1,142.903,79.066)"><tspan
                           id="tspan136"
                           y="0"
                           x="0 3.5974948 9.1327152">InD</tspan></text>
<g
                         transform="translate(131.245,81.218)"
                         id="g140" /></g></g><g
                     transform="translate(-57.834,-61.371)"
                     id="g142" /></g></g></g></g><g
             id="g144"><g
               id="g146"><path
                 id="path148"
                 style="fill:none;stroke:#808080;stroke-width:0.19925;stroke-linecap:butt;stroke-linejoin:miter;stroke-miterlimit:10;stroke-dasharray:none;stroke-opacity:1"
                 d="M 204.09706,0 H 433.70638 M 204.09706,28.3468 H 433.70638 M 204.09706,56.69362 H 433.70638 M 204.09706,85.04042 H 433.70638 M 212.60118,0 V 90.7097 M 240.94798,0 V 90.7097 M 269.2948,0 V 90.7097 M 297.64162,0 V 90.7097 M 325.98842,0 V 90.7097 M 354.33524,0 V 90.7097 M 382.68204,0 V 90.7097 M 411.02885,0 v 90.7097" /></g><g
               id="g150"><path
                 id="path152"
                 style="fill:none;stroke:#000000;stroke-width:0.79701;stroke-linecap:butt;stroke-linejoin:miter;stroke-miterlimit:10;stroke-dasharray:none;stroke-opacity:1"
                 d="M 201.26263,0 H 436.7854" /><g
                 transform="translate(436.7854)"
                 id="g154"><g
                   id="g156"><path
                     id="path158"
                     style="fill:#000000;fill-opacity:1;fill-rule:nonzero;stroke:none"
                     d="M 2.59026,0 -1.55415,2.0722 0,0 -1.55415,-2.0722" /></g></g><g
                 id="g160"><g
                   transform="translate(330.154,-12.602)"
                   id="g162"><g
                     id="g164"><g
                       transform="translate(-403.565,-7.245)"
                       id="g166"><text
                         id="text170"
                         style="font-variant:normal;font-weight:normal;font-size:11.9552002px;font-family:CMR12;-inkscape-font-specification:CMR12;writing-mode:lr-tb;fill:#000000;fill-opacity:1;fill-rule:nonzero;stroke:none"
                         transform="matrix(1,0,0,-1,403.565,7.245)"><tspan
                           id="tspan168"
                           y="0"
                           x="0 6.5036287 11.706532 17.559797 22.112337 31.212637 36.745502 42.59877 45.850582 52.354214 61.45451 65.031509 70.884773">Scorevaluefor</tspan></text>
<text
                         id="text174"
                         style="font-variant:normal;font-weight:normal;font-size:11.9552002px;font-family:CMMI12;-inkscape-font-specification:CMMI12;writing-mode:lr-tb;fill:#000000;fill-opacity:1;fill-rule:nonzero;stroke:none"
                         transform="matrix(1,0,0,-1,482.906,7.245)"><tspan
                           id="tspan172"
                           y="0"
                           x="0">S</tspan></text>
<text
                         id="text178"
                         style="font-variant:normal;font-weight:normal;font-size:7.97009993px;font-family:CMR8;-inkscape-font-specification:CMR8;writing-mode:lr-tb;fill:#000000;fill-opacity:1;fill-rule:nonzero;stroke:none"
                         transform="matrix(1,0,0,-1,490.105,5.451)"><tspan
                           id="tspan176"
                           y="0"
                           x="0 4.2345142 8.700161 13.173779">good</tspan></text>
<g
                         transform="translate(403.565,7.245)"
                         id="g180" /></g></g><g
                     transform="translate(-330.154,12.602)"
                     id="g182" /></g></g></g><g
               id="g184"><path
                 id="path186"
                 style="fill:none;stroke:#000000;stroke-width:0.79701;stroke-linecap:butt;stroke-linejoin:miter;stroke-miterlimit:10;stroke-dasharray:none;stroke-opacity:1"
                 d="M 269.2948,0 V 90.95428" /><g
                 transform="rotate(90,89.17026,180.12454)"
                 id="g188"><g
                   id="g190"><path
                     id="path192"
                     style="fill:#000000;fill-opacity:1;fill-rule:nonzero;stroke:none"
                     d="M 2.59026,0 -1.55415,2.0722 0,0 -1.55415,-2.0722" /></g></g><g
                 id="g194"><g
                   transform="translate(273.591,90.621)"
                   id="g196"><g
                     id="g198"><g
                       transform="translate(-347.002,-110.468)"
                       id="g200"><text
                         id="text204"
                         style="font-variant:normal;font-weight:normal;font-size:11.9552002px;font-family:CMR12;-inkscape-font-specification:CMR12;writing-mode:lr-tb;fill:#000000;fill-opacity:1;fill-rule:nonzero;stroke:none"
                         transform="matrix(1,0,0,-1,347.002,110.468)"><tspan
                           id="tspan202"
                           y="0"
                           x="0 8.9400988 14.143002 20.646631 25.263729 28.515543 32.745293">Density</tspan></text>
<g
                         transform="translate(347.002,110.468)"
                         id="g206" /></g></g><g
                     transform="translate(-273.591,-90.621)"
                     id="g208" /></g></g></g><g
               id="g210"><path
                 id="path212"
                 style="fill:#fe8010;fill-opacity:0.35;fill-rule:nonzero;stroke:none"
                 d="m 204.09706,0 v 13.48262 l 2.31928,2.33701 2.31926,2.58743 2.31927,2.84526 2.31928,3.09608 2.31925,3.33228 2.31928,3.53903 2.31926,3.70772 2.31927,3.84872 2.31928,3.9361 2.31926,3.95859 2.31927,3.93695 2.31926,3.83403 2.31926,3.66403 2.31928,3.41963 2.31926,3.11859 2.31927,2.74274 2.31926,2.30673 2.31928,1.82054 2.31927,1.29114 2.31926,0.7366 2.31928,0.16222 2.31927,-0.41959 2.31926,-0.98878 2.31927,-1.52599 2.31927,-2.04893 2.31927,-2.50655 2.31928,-2.91185 2.31926,-3.25787 2.31925,-3.54681 2.31927,-3.74491 2.31927,-3.88464 2.31927,-3.95166 2.31926,-3.95859 2.31928,-3.90712 2.31926,-3.7886 2.31927,-3.64284 2.31928,-3.44212 2.31926,-3.2289 2.31927,-2.98581 2.31928,-2.73494 2.31926,-2.47757 2.31927,-2.21893 2.31926,-1.97584 2.31928,-1.72408 2.31927,-1.50437 2.31926,-1.29675 2.31928,-1.10686 2.31926,-0.93559 2.31927,-0.7816 2.31928,-0.64881 2.31926,-0.53071 2.31927,-0.44206 2.31926,-0.34647 2.31927,-0.27985 2.31928,-0.22967 2.31926,-0.16956 2.31927,-0.13712 2.31928,-0.10597 2.31926,-0.08218 2.31927,-0.06055 2.31926,-0.04715 2.31928,-0.03503 2.31927,-0.02595 2.31926,-0.01774 2.31928,-0.01471 2.31926,-0.00994 2.31927,-0.00692 2.31928,-0.00433 2.31926,-0.01039 h 2.31927 2.31926 2.31928 2.31927 2.31926 2.31926 2.31928 2.31926 2.31927 2.31926 2.31927 2.31928 2.31926 2.31927 2.31926 2.31928 2.31927 2.31926 2.31928 2.31926 2.31927 2.31928 2.31926 2.31927 2.31927 2.31927 2.31927 2.31926 2.31928 2.31927 L 433.70665,0" /></g><g
               id="g214"><path
                 id="path216"
                 style="fill:none;stroke:#fe8010;stroke-width:0.79701;stroke-linecap:butt;stroke-linejoin:miter;stroke-miterlimit:10;stroke-dasharray:none;stroke-opacity:1"
                 d="m 204.09706,13.48262 2.31928,2.33701 2.31926,2.58743 2.31927,2.84526 2.31928,3.09608 2.31925,3.33228 2.31928,3.53903 2.31926,3.70772 2.31927,3.84872 2.31928,3.9361 2.31926,3.95859 2.31927,3.93695 2.31926,3.83403 2.31926,3.66403 2.31928,3.41963 2.31926,3.11859 2.31927,2.74274 2.31926,2.30673 2.31928,1.82054 2.31927,1.29114 2.31926,0.7366 2.31928,0.16222 2.31927,-0.41959 2.31926,-0.98878 2.31927,-1.52599 2.31927,-2.04893 2.31927,-2.50655 2.31928,-2.91185 2.31926,-3.25787 2.31925,-3.54681 2.31927,-3.74491 2.31927,-3.88464 2.31927,-3.95166 2.31926,-3.95859 2.31928,-3.90712 2.31926,-3.7886 2.31927,-3.64284 2.31928,-3.44212 2.31926,-3.2289 2.31927,-2.98581 2.31928,-2.73494 2.31926,-2.47757 2.31927,-2.21893 2.31926,-1.97584 2.31928,-1.72408 2.31927,-1.50437 2.31926,-1.29675 2.31928,-1.10686 2.31926,-0.93559 2.31927,-0.7816 2.31928,-0.64881 2.31926,-0.53071 2.31927,-0.44206 2.31926,-0.34647 2.31927,-0.27985 2.31928,-0.22967 2.31926,-0.16956 2.31927,-0.13712 2.31928,-0.10597 2.31926,-0.08218 2.31927,-0.06055 2.31926,-0.04715 2.31928,-0.03503 2.31927,-0.02595 2.31926,-0.01774 2.31928,-0.01471 2.31926,-0.00994 2.31927,-0.00692 2.31928,-0.00433 2.31926,-0.01039 h 2.31927 2.31926 2.31928 2.31927 2.31926 2.31926 2.31928 2.31926 2.31927 2.31926 2.31927 2.31928 2.31926 2.31927 2.31926 2.31928 2.31927 2.31926 2.31928 2.31926 2.31927 2.31928 2.31926 2.31927 2.31927 2.31927 2.31927 2.31926 2.31928 2.31927" /></g><g
               id="g218"><g
                 id="g220"><g
                   transform="translate(206.272,67.04)"
                   id="g222"><g
                     id="g224"><g
                       transform="translate(-279.683,-86.887)"
                       id="g226"><text
                         id="text230"
                         style="font-variant:normal;font-weight:normal;font-size:14.34619999px;font-family:CMMI12;-inkscape-font-specification:CMMI12;writing-mode:lr-tb;fill:#fe8010;fill-opacity:1;fill-rule:nonzero;stroke:none"
                         transform="matrix(1,0,0,-1,279.683,86.887)"><tspan
                           id="tspan228"
                           y="0"
                           x="0">X</tspan></text>
<text
                         id="text234"
                         style="font-variant:normal;font-weight:normal;font-size:9.96259975px;font-family:CMR10;-inkscape-font-specification:CMR10;writing-mode:lr-tb;fill:#fe8010;fill-opacity:1;fill-rule:nonzero;stroke:none"
                         transform="matrix(1,0,0,-1,291.341,84.735)"><tspan
                           id="tspan232"
                           y="0"
                           x="0 7.7489104 12.73021">OoD</tspan></text>
<g
                         transform="translate(279.683,86.887)"
                         id="g236" /></g></g><g
                     transform="translate(-206.272,-67.04)"
                     id="g238" /></g></g></g><g
               id="g240"><path
                 id="path242"
                 style="fill:#2fa12e;fill-opacity:0.35;fill-rule:nonzero;stroke:none"
                 d="m 204.09706,0 v 8.4e-4 h 2.31928 2.31926 2.31927 2.31928 2.31925 2.31928 2.31926 2.31927 2.31928 l 2.31926,0.00822 2.31927,0.00304 2.31926,0.00432 2.31926,0.00606 2.31928,0.00822 2.31926,0.00952 2.31927,0.0134 2.31926,0.01773 2.31928,0.02292 2.31927,0.02813 2.31926,0.03719 2.31928,0.04585 2.31927,0.05796 2.31926,0.07266 2.31927,0.09041 2.31927,0.11116 2.31927,0.13496 2.31928,0.16393 2.31926,0.20329 2.31925,0.24525 2.31927,0.29239 2.31927,0.35424 2.31927,0.40789 2.31926,0.49006 2.31928,0.57182 2.31926,0.66049 2.31927,0.76169 2.31928,0.87849 2.31926,0.99959 2.31927,1.12937 2.31928,1.27251 2.31926,1.4222 2.31927,1.5727 2.31926,1.74227 2.31928,1.89841 2.31927,2.06795 2.31926,2.23192 2.31928,2.3824 2.31926,2.53815 2.31927,2.66789 2.31928,2.78943 2.31926,2.89195 2.31927,2.96678 2.31926,3.02214 2.31927,3.04161 2.31928,3.02777 2.31926,2.97413 2.31927,2.89843 2.31928,2.77689 2.31926,2.61903 2.31927,2.43044 2.31926,2.19035 2.31928,1.93303 2.31927,1.64018 2.31926,1.32658 2.31928,0.98705 2.31926,0.62589 2.31927,0.26472 2.31928,-0.10165 2.31926,-0.4693 2.31927,-0.82312 2.31926,-1.17824 2.31928,-1.50307 2.31927,-1.80325 2.31926,-2.08223 2.31926,-2.32749 2.31928,-2.53813 2.31926,-2.70855 2.31927,-2.85131 2.31926,-2.94644 2.31927,-3.01436 2.31928,-3.03554 2.31926,-3.03425 2.31927,-2.9949 2.31926,-2.92525 2.31928,-2.83832 2.31927,-2.72888 2.31926,-2.59221 2.31928,-2.45725 2.31926,-2.29936 2.31927,-2.13717 2.31928,-1.97974 2.31926,-1.81059 2.31927,-1.64624 2.31927,-1.49097 2.31927,-1.34 2.31927,-1.19078 2.31926,-1.05452 2.31928,-0.93213 2.31927,-0.8097 L 433.70638,0" /></g><g
               id="g244"><path
                 id="path246"
                 style="fill:none;stroke:#2fa12e;stroke-width:0.79701;stroke-linecap:butt;stroke-linejoin:miter;stroke-miterlimit:10;stroke-dasharray:none;stroke-opacity:1"
                 d="m 204.09706,8.4e-4 h 2.31928 2.31926 2.31927 2.31928 2.31925 2.31928 2.31926 2.31927 2.31928 l 2.31926,0.00822 2.31927,0.00304 2.31926,0.00432 2.31926,0.00606 2.31928,0.00822 2.31926,0.00952 2.31927,0.0134 2.31926,0.01773 2.31928,0.02292 2.31927,0.02813 2.31926,0.03719 2.31928,0.04585 2.31927,0.05796 2.31926,0.07266 2.31927,0.09041 2.31927,0.11116 2.31927,0.13496 2.31928,0.16393 2.31926,0.20329 2.31925,0.24525 2.31927,0.29239 2.31927,0.35424 2.31927,0.40789 2.31926,0.49006 2.31928,0.57182 2.31926,0.66049 2.31927,0.76169 2.31928,0.87849 2.31926,0.99959 2.31927,1.12937 2.31928,1.27251 2.31926,1.4222 2.31927,1.5727 2.31926,1.74227 2.31928,1.89841 2.31927,2.06795 2.31926,2.23192 2.31928,2.3824 2.31926,2.53815 2.31927,2.66789 2.31928,2.78943 2.31926,2.89195 2.31927,2.96678 2.31926,3.02214 2.31927,3.04161 2.31928,3.02777 2.31926,2.97413 2.31927,2.89843 2.31928,2.77689 2.31926,2.61903 2.31927,2.43044 2.31926,2.19035 2.31928,1.93303 2.31927,1.64018 2.31926,1.32658 2.31928,0.98705 2.31926,0.62589 2.31927,0.26472 2.31928,-0.10165 2.31926,-0.4693 2.31927,-0.82312 2.31926,-1.17824 2.31928,-1.50307 2.31927,-1.80325 2.31926,-2.08223 2.31926,-2.32749 2.31928,-2.53813 2.31926,-2.70855 2.31927,-2.85131 2.31926,-2.94644 2.31927,-3.01436 2.31928,-3.03554 2.31926,-3.03425 2.31927,-2.9949 2.31926,-2.92525 2.31928,-2.83832 2.31927,-2.72888 2.31926,-2.59221 2.31928,-2.45725 2.31926,-2.29936 2.31927,-2.13717 2.31928,-1.97974 2.31926,-1.81059 2.31927,-1.64624 2.31927,-1.49097 2.31927,-1.34 2.31927,-1.19078 2.31926,-1.05452 2.31928,-0.93213 2.31927,-0.8097" /></g><g
               id="g248"><g
                 id="g250"><g
                   transform="translate(378.149,59.954)"
                   id="g252"><g
                     id="g254"><g
                       transform="translate(-451.56,-79.801)"
                       id="g256"><text
                         id="text260"
                         style="font-variant:normal;font-weight:normal;font-size:14.34619999px;font-family:CMMI12;-inkscape-font-specification:CMMI12;writing-mode:lr-tb;fill:#2fa12e;fill-opacity:1;fill-rule:nonzero;stroke:none"
                         transform="matrix(1,0,0,-1,451.56,79.801)"><tspan
                           id="tspan258"
                           y="0"
                           x="0">X</tspan></text>
<text
                         id="text264"
                         style="font-variant:normal;font-weight:normal;font-size:9.96259975px;font-family:CMR10;-inkscape-font-specification:CMR10;writing-mode:lr-tb;fill:#2fa12e;fill-opacity:1;fill-rule:nonzero;stroke:none"
                         transform="matrix(1,0,0,-1,463.218,77.649)"><tspan
                           id="tspan262"
                           y="0"
                           x="0 3.5974948 9.1327152">InD</tspan></text>
<g
                         transform="translate(451.56,79.801)"
                         id="g266" /></g></g><g
                     transform="translate(-378.149,-59.954)"
                     id="g268" /></g></g></g></g></g></g></g></g></svg>